<svg width="150" height="28" viewBox="0 0 150 28" fill="none" xmlns="http://www.w3.org/2000/svg">
<g transform="translate(0, 2) scale(0.1)">
<path d="M78.5455 187.455C78.5455 203.119 65.8467 215.818 50.1818 215.818C34.517 215.818 21.8182 203.119 21.8182 187.455C21.8182 172.035 34.1228 159.488 49.4489 159.099L50.1818 159.091L50.7422 159.076C56.5067 158.784 61.0909 154.019 61.0909 148.182C61.0909 142.345 56.5067 137.579 50.7422 137.288L50.1818 137.273L48.8864 137.29C21.7704 137.977 2.07553e-07 160.173 0 187.455C0 215.169 22.4672 237.636 50.1818 237.636C77.8965 237.636 100.364 215.169 100.364 187.455C100.364 181.43 95.4795 176.545 89.4546 176.545C83.4297 176.545 78.5455 181.43 78.5455 187.455Z" fill="url(#paint0_linear_harmony_light)"/>
<path d="M161.455 52.1818C161.455 36.517 174.153 23.8182 189.818 23.8182C205.483 23.8182 218.182 36.517 218.182 52.1818C218.182 67.6016 205.877 80.1482 190.551 80.5369L189.818 80.5454L189.258 80.5604C183.493 80.8521 178.909 85.6176 178.909 91.4545C178.909 97.2915 183.493 102.057 189.258 102.349L189.818 102.364L191.114 102.347C218.23 101.659 240 79.4633 240 52.1818C240 24.4672 217.533 2 189.818 2C162.103 2 139.636 24.4672 139.636 52.1818C139.636 58.2067 144.52 63.0909 150.545 63.0909C156.57 63.0909 161.455 58.2067 161.455 52.1818Z" fill="url(#paint1_linear_harmony_light)"/>
<path d="M50.1818 2C77.9861 2 100.364 24.7121 100.364 52.527V108.909H139.636V91.4545C139.636 85.4296 144.521 80.5454 150.545 80.5454C156.57 80.5454 161.455 85.4296 161.455 91.4545V108.909H168C174.025 108.909 178.909 113.793 178.909 119.818C178.909 125.843 174.025 130.727 168 130.727H161.455V187.109C161.455 203.054 174.243 215.818 189.818 215.818C205.393 215.818 218.182 203.054 218.182 187.109C218.181 171.165 205.393 158.403 189.818 158.403C183.794 158.403 178.91 153.518 178.909 147.494C178.909 141.469 183.793 136.584 189.818 136.584C217.622 136.584 240 159.295 240 187.109C240 214.924 217.622 237.636 189.818 237.636C162.014 237.636 139.636 214.924 139.636 187.109V130.727H100.364V148.182C100.364 154.207 95.4795 159.091 89.4545 159.091C83.4296 159.091 78.5455 154.207 78.5455 148.182V130.727H72C65.9751 130.727 61.0909 125.843 61.0909 119.818C61.0909 113.793 65.9751 108.909 72 108.909H78.5455V52.527C78.5455 36.5819 65.757 23.8182 50.1818 23.8182C34.6066 23.8182 21.8182 36.5819 21.8182 52.527C21.8185 68.4717 34.6069 81.2336 50.1818 81.2336C56.2065 81.2336 61.0905 86.1182 61.0909 92.1427C61.0909 98.1677 56.2067 103.052 50.1818 103.052C22.3778 103.052 0.000361579 80.3416 0 52.527C0 24.7121 22.3775 2 50.1818 2Z" fill="url(#paint2_linear_harmony_light)"/>
</g>
<text x="32" y="20" font-family="Inter, system-ui, -apple-system, sans-serif" font-size="16" font-weight="700" fill="#09090B">Harmony</text>
<defs>
<linearGradient id="paint0_linear_harmony_light" x1="30.5163" y1="160.198" x2="85.1787" y2="220.934" gradientUnits="userSpaceOnUse">
<stop offset="0.0788211" stop-color="#6B3ED7"/>
<stop offset="1" stop-color="#B272EB"/>
</linearGradient>
<linearGradient id="paint1_linear_harmony_light" x1="209.484" y1="79.4384" x2="154.821" y2="18.7023" gradientUnits="userSpaceOnUse">
<stop offset="0.0788211" stop-color="#6B3ED7"/>
<stop offset="1" stop-color="#B272EB"/>
</linearGradient>
<linearGradient id="paint2_linear_harmony_light" x1="18.8236" y1="18.6493" x2="224.329" y2="224.147" gradientUnits="userSpaceOnUse">
<stop stop-color="#4E2ABD"/>
<stop offset="0.197115" stop-color="#6B3ED7"/>
<stop offset="0.495192" stop-color="#BF7FF9"/>
<stop offset="0.798077" stop-color="#6A3FCC"/>
<stop offset="1" stop-color="#4E2ABD"/>
</linearGradient>
</defs>
</svg>
