<svg width="24" height="24" viewBox="0 0 24 24" fill="none" xmlns="http://www.w3.org/2000/svg">
<path d="M12.0352 2.97168C12.5854 2.97364 13.0299 3.42137 13.0283 3.97168L13.0059 10.9805C13.9936 10.1431 15.2717 9.6378 16.668 9.6377C19.7977 9.63777 22.3357 12.175 22.3359 15.3047C22.3357 18.4343 19.7977 20.9716 16.668 20.9717C13.5384 20.9714 11.0012 18.4342 11.001 15.3047C11.001 15.3022 11.001 15.2993 11.001 15.2969C11.0008 15.2891 11 15.2812 11 15.2734L11.0352 3.96582C11.0369 3.41537 11.4847 2.97011 12.0352 2.97168ZM16.668 11.6309C14.6395 11.6311 12.9953 13.2762 12.9951 15.3047C12.9953 17.3331 14.6395 18.9783 16.668 18.9785C18.6966 18.9784 20.3416 17.3332 20.3418 15.3047C20.3416 13.2761 18.6965 11.6309 16.668 11.6309Z" fill="#70BF1D"/>
<mask id="path-2-inside-1_3606_11411" fill="white">
<path d="M6.49653 5.37344C8.82219 6.30864 9.39251 9.04684 9.97282 11.1595C8.55201 12.0906 4.26574 9.89818 2 6.22119C4.31567 6.51595 6.77282 7.35803 10 11.1749"/>
</mask>
<path d="M7.2427 3.51785C6.21789 3.10575 5.05304 3.60246 4.64094 4.62727C4.22884 5.65209 4.72554 6.81694 5.75036 7.22904L7.2427 3.51785ZM9.97282 11.1595L11.069 12.8323C11.7951 12.3566 12.1313 11.4668 11.9014 10.6298L9.97282 11.1595ZM2 6.22119L2.25254 4.2372C1.48841 4.13993 0.736336 4.49015 0.318989 5.13758C-0.0983585 5.78502 -0.106795 6.61459 0.297299 7.27038L2 6.22119ZM8.47273 12.4662C9.1859 13.3097 10.4478 13.4154 11.2913 12.7022C12.1348 11.989 12.2404 10.7271 11.5273 9.88365L8.47273 12.4662ZM6.49653 5.37344L5.75036 7.22904C6.27886 7.44156 6.69938 7.87572 7.08243 8.68262C7.49189 9.54516 7.72468 10.5258 8.04425 11.6892L9.97282 11.1595L11.9014 10.6298C11.6406 9.68052 11.2981 8.23575 10.6959 6.96723C10.0673 5.64306 9.03987 4.24053 7.2427 3.51785L6.49653 5.37344ZM9.97282 11.1595L8.87659 9.4867C9.18132 9.28701 9.29634 9.43147 8.85225 9.33941C8.48317 9.2629 7.94692 9.06071 7.30885 8.68957C6.03422 7.94816 4.64703 6.70451 3.7027 5.17199L2 6.22119L0.297299 7.27038C1.61871 9.41486 3.50752 11.1059 5.29766 12.1472C6.19198 12.6674 7.13531 13.0685 8.04031 13.2561C8.8703 13.4282 10.0539 13.4976 11.069 12.8323L9.97282 11.1595ZM2 6.22119L1.74746 8.20518C2.73375 8.33072 3.66461 8.55897 4.68865 9.12654C5.73172 9.70466 6.97219 10.6915 8.47273 12.4662L10 11.1749L11.5273 9.88365C9.80063 7.84149 8.19894 6.49882 6.62772 5.62797C5.03747 4.74658 3.58193 4.40641 2.25254 4.2372L2 6.22119Z" fill="#70BF1D" mask="url(#path-2-inside-1_3606_11411)"/>
</svg>