<?xml version="1.0" encoding="UTF-8"?>
<svg xmlns="http://www.w3.org/2000/svg" width="85" height="36" viewBox="0 0 85 36" fill="none">
  <g clip-path="url(#clip0_8001_391)">
    <path fill-rule="evenodd" clip-rule="evenodd" d="M18.7721 12.1969V0.731445H25.5922V15.8437C25.162 16.5056 24.7893 17.2057 24.4798 17.937C23.429 20.42 23.154 23.1523 23.6897 25.7882C23.8629 26.6405 24.1184 27.4704 24.4504 28.2675C23.444 30.41 21.8278 32.2261 19.7926 33.4963C17.6677 34.8224 15.1843 35.4921 12.6653 35.4182C10.1463 35.3443 7.70835 34.5303 5.66841 33.082C3.62846 31.6336 2.08094 29.6181 1.22709 27.2973C0.373244 24.9766 0.25257 22.4581 0.880768 20.0693C1.50897 17.6805 2.85697 15.532 4.74947 13.9032C6.64198 12.2744 8.99142 11.2406 11.4923 10.9363C13.9931 10.632 16.5297 11.0712 18.7721 12.1969ZM15.6609 28.6663C17.0629 28.0258 18.1717 26.8982 18.7721 25.5025V25.5053C19.0956 24.7545 19.2618 23.9478 19.2609 23.1329C19.2608 21.6186 18.6859 20.1582 17.6477 19.0354C16.6094 17.9126 15.182 17.2075 13.6425 17.0569C12.1029 16.9063 10.5612 17.321 9.31646 18.2205C8.07175 19.12 7.21291 20.4401 6.90669 21.9245C6.60047 23.4089 6.86872 24.9517 7.65935 26.2534C8.44997 27.5552 9.70657 28.5229 11.1852 28.9688C12.6638 29.4146 14.2589 29.3068 15.6609 28.6663Z" fill="black"></path>
    <path d="M51.1895 23.1372C51.1895 25.2332 50.6942 27.2924 49.7526 29.1574C52.7072 37.0549 63.5557 34.9636 63.5557 34.9636V29.2408H61.0885C56.2785 29.2408 55.8447 26.1748 55.8447 23.508V17.0647H62.9772V11.2428H55.8447V0.74843H49.0173V15.8391C50.4249 18.0031 51.1895 20.5315 51.1895 23.1372Z" fill="black"></path>
    <path d="M70.0302 34.2289C72.6391 35.5793 78.0102 36.3253 82.0059 33.4716C84.6698 31.5692 85.2381 28.901 84.3632 25.9823C83.7616 23.9851 82.2923 22.7267 80.4585 21.8137C79.3314 21.253 78.1331 20.8896 76.9344 20.5262L76.9338 20.526C76.5471 20.4087 76.1603 20.2914 75.7758 20.1675C72.6521 19.137 72.4974 18.1816 72.4974 17.6932C72.5248 16.8482 73.2566 16.173 74.8387 16.173C77.1107 16.173 77.786 17.8914 77.786 18.1547H84.2735C84.1951 16.8587 83.7703 15.6056 83.0416 14.5208C82.313 13.436 81.3061 12.5575 80.1216 11.9732C77.2104 10.4841 71.3086 10.01 67.7987 13.5657C66.3034 15.0816 65.8753 16.9657 66.0923 19.0181C66.2586 20.5652 66.811 21.9439 67.9405 23.0763C68.866 23.9872 69.9953 24.6748 71.2392 25.0849C72.0066 25.3492 72.7857 25.5825 73.565 25.8159C74.2381 26.0175 74.9115 26.2192 75.5777 26.4409C75.8236 26.5216 76.0723 26.6079 76.3153 26.7056C76.7106 26.8539 77.0884 27.0437 77.4418 27.2718L77.4939 27.3086C77.6585 27.4231 77.7994 27.5672 77.9089 27.7333V27.7403C78.032 27.9318 78.1045 28.1502 78.1201 28.3759C78.1385 28.6486 78.0687 28.92 77.9205 29.1516L77.9003 29.1855C77.5431 29.773 76.7448 30.1764 75.4316 30.1764C74.6091 30.1771 73.8063 29.93 73.1322 29.4686H73.1221C72.9341 29.354 72.049 28.7213 72.049 27.9003H65.4256C65.4385 27.9887 65.4493 28.072 65.4598 28.1519L65.4598 28.1522L65.4598 28.1524C65.4786 28.2962 65.4959 28.4289 65.521 28.5599C66.0402 31.1984 67.6512 32.9989 70.0302 34.2289Z" fill="black"></path>
    <path d="M44.6499 23.1358C44.6499 27.1047 41.3626 30.3222 37.3076 30.3222C33.2526 30.3222 29.9654 27.1047 29.9654 23.1358C29.9654 19.1668 33.2526 15.9493 37.3076 15.9493C41.3626 15.9493 44.6499 19.1668 44.6499 23.1358Z" fill="black"></path>
    <circle cx="37.1512" cy="23.2039" r="7.49104" fill="#00B55A"></circle>
  </g>
  <defs>
    <clipPath id="clip0_8001_391">
      <rect width="85" height="36" fill="white"></rect>
    </clipPath>
  </defs>
</svg>
