<svg width="24" height="24" viewBox="0 0 24 24" fill="none" xmlns="http://www.w3.org/2000/svg">
<path d="M12 22C9.34819 21.9989 6.80532 20.9449 4.93021 19.0698C3.05509 17.1947 2.00115 14.6518 2 12C2.00115 9.34819 3.05509 6.80532 4.93021 4.93021C6.80532 3.05509 9.34819 2.00115 12 2H19.5004C20.1634 2 20.7991 2.26335 21.2679 2.73211C21.7366 3.20086 22 3.83664 22 4.49956V12C21.9989 14.6518 20.9449 17.1947 19.0698 19.0698C17.1947 20.9449 14.6518 21.9989 12 22Z" fill="#148FCC"/>
<path d="M11.8504 16.954C11.9139 16.9945 11.99 17.0108 12.0646 16.9998C12.1391 16.9888 12.2072 16.9512 12.2563 16.894L15.6337 12.512L16.4237 11.4916C16.6166 11.2517 16.4237 10.911 16.1039 10.911H11.0169L12.2606 7.36768C12.2809 7.31007 12.2814 7.24735 12.2621 7.18943C12.2427 7.1315 12.2046 7.08168 12.1538 7.04785C12.0902 7.00728 12.0142 6.991 11.9396 7.00202C11.8651 7.01304 11.7969 7.05061 11.7479 7.10782L8.367 11.5098L7.57613 12.5302C7.38406 12.7701 7.57613 13.1108 7.89683 13.1108H12.9829L11.7435 16.6524C11.7228 16.7072 11.7222 16.7675 11.7418 16.8228C11.7613 16.878 11.7998 16.9245 11.8504 16.954Z" fill="white"/>
</svg>
