<svg width="24" height="24" viewBox="65 78 266.22 258.539" fill="none" xmlns="http://www.w3.org/2000/svg">
<g clip-path="url(#clip0_1392_1408)">
<path d="M197.064 78.5346C176.035 77.9448 155.005 77.4058 134.018 79.4562C123.231 80.5067 112.707 82.7091 102.285 85.7732C89.6001 89.5054 81.5782 97.7761 76.7079 109.632C75.6896 112.11 74.6944 114.603 73.865 117.151C67.7 136.006 65.9122 155.528 65.175 175.194C64.6129 190.173 65.5436 205.12 66.2302 220.072C66.7923 232.333 67.5295 244.589 69.7412 256.698C70.8424 262.743 72.3491 268.673 74.5423 274.424C80.7396 290.666 92.9222 299.945 109.445 303.728C128.051 307.99 147.02 309.566 166.055 310.193C180.707 310.677 195.373 310.801 210.034 311.077C210.892 311.091 211.624 311.1 212.228 311.948C215.043 315.902 218.923 318.675 222.95 321.233C228.585 324.813 234.446 328.043 240.449 330.904C248.117 334.558 256.263 336.774 264.879 336.521C268.469 336.415 269.584 334.821 268.482 331.397C267.593 328.633 266.418 325.96 265.349 323.251C263.488 318.528 262.672 313.667 263.29 308.599C263.497 306.903 263.925 305.848 266.054 305.452C273.915 303.991 281.863 303.35 289.779 302.424C304.325 300.724 314.748 293.467 320.83 280.027C324.912 271 327.138 261.485 328.69 251.773C331.234 235.867 331.22 219.809 331.22 203.775C331.22 182.741 330.409 161.725 328.64 140.756C327.925 132.255 326.926 123.754 323.424 115.88C317.245 101.987 306.26 93.1178 292.382 87.7591C278.421 82.3682 263.7 80.6081 248.863 80.0229C231.603 79.3456 214.333 79.0138 197.069 78.53L197.064 78.5346Z" fill="#FEFEFE"/>
<path d="M197.064 78.5344C214.329 79.0182 231.603 79.3499 248.858 80.0273C263.695 80.6078 278.416 82.3725 292.378 87.7635C306.256 93.1222 317.24 101.996 323.419 115.884C326.921 123.758 327.921 132.259 328.635 140.761C330.4 161.73 331.22 182.741 331.215 203.779C331.215 219.814 331.229 235.867 328.686 251.777C327.133 261.49 324.907 271.005 320.825 280.031C314.748 293.471 304.321 300.728 289.774 302.429C281.858 303.355 273.906 303.995 266.049 305.456C263.921 305.852 263.492 306.907 263.285 308.603C262.667 313.671 263.483 318.532 265.345 323.255C266.413 325.96 267.584 328.637 268.478 331.401C269.579 334.825 268.464 336.419 264.875 336.525C256.258 336.779 248.107 334.562 240.445 330.908C234.441 328.047 228.58 324.817 222.945 321.237C218.918 318.675 215.038 315.906 212.223 311.953C211.619 311.105 210.887 311.1 210.03 311.082C195.368 310.81 180.707 310.681 166.05 310.197C147.016 309.57 128.046 307.995 109.441 303.733C92.9176 299.95 80.735 290.665 74.5377 274.428C72.3445 268.682 70.8424 262.748 69.7365 256.702C67.5295 244.594 66.7877 232.337 66.2255 220.076C65.539 205.125 64.6082 190.177 65.1704 175.198C65.9076 155.533 67.7 136.01 73.8558 117.151C74.6851 114.608 75.6804 112.11 76.6987 109.631C81.5736 97.7759 89.5908 89.5052 102.276 85.773C112.698 82.7043 123.227 80.5064 134.008 79.4559C155.005 77.4055 176.035 77.9446 197.064 78.5344ZM108.431 197.978C109.5 220.058 110.118 242.147 110.33 264.25C110.38 269.627 110.643 270.009 116.071 270.055C124.973 270.134 133.879 270.037 142.781 270.032C145.726 270.032 146.601 269.489 146.795 266.567C147.02 263.135 146.859 259.679 146.864 256.232C146.873 244.409 146.518 232.605 145.403 220.827C144.929 215.805 145.915 214.745 150.992 214.395C151.144 214.386 151.301 214.381 151.453 214.367C163.014 213.474 174.606 213.381 186.185 212.939C190.176 212.787 191.512 213.874 191.774 217.851C192.166 223.744 192.443 229.646 192.774 235.544C193.359 245.884 193.553 256.246 194.539 266.563C194.737 268.659 195.594 269.673 197.833 269.807C205.74 270.281 213.638 270.065 221.54 269.857C225.664 269.747 226.746 268.728 227.465 264.711C227.792 262.877 227.806 261.038 227.691 259.204C227.484 255.988 227.032 252.786 226.94 249.57C226.111 220.956 225.309 192.348 224.558 163.734C224.272 152.768 224.148 141.793 223.913 130.826C223.802 125.574 222.733 124.519 217.42 124.155C217.19 124.141 216.96 124.127 216.729 124.127C209.975 124.136 203.229 124.095 196.506 125.002C190.083 125.869 188.259 127.896 188.337 134.273C188.498 147.165 188.618 160.057 188.743 172.949C188.766 175.58 188.111 176.35 185.517 176.774C184.688 176.907 183.835 176.99 183.001 176.958C171.178 176.474 159.374 177.036 147.564 177.46C143.145 177.617 142.487 177.152 142.012 172.784C140.487 158.744 139.625 144.654 138.893 130.559C138.588 124.694 138.307 124.394 132.645 123.947C132.493 123.933 132.34 123.91 132.184 123.906C124.812 123.68 117.467 123.832 110.15 124.966C107.823 125.325 106.782 126.5 106.708 128.721C106.616 131.481 106.469 134.241 106.478 137.001C106.552 157.343 107.468 177.658 108.431 197.969V197.978ZM253.024 224.237C253.024 229.706 252.982 239.216 253.038 248.731C253.07 254.403 252.388 260.075 253.079 265.747C253.438 268.705 254.429 269.866 257.3 269.774C264.441 269.549 271.565 270.194 278.697 270.115C284.194 270.055 285.097 269.037 285.111 263.646C285.185 236.028 285.277 208.405 285.365 180.787C285.379 176.368 283.95 174.622 279.467 174.276C271.652 173.677 263.829 174.138 256.005 174.295C254.291 174.327 253.646 175.221 253.577 176.93C252.978 191.343 252.775 205.76 253.019 224.232L253.024 224.237ZM285.369 139.01C285.36 128.122 278.647 120.883 268.565 120.888C257.958 120.897 249.886 128.813 249.881 139.217C249.877 149.252 257.668 156.353 268.69 156.357C278.26 156.357 285.379 148.953 285.369 139.01Z" fill="#ED174F"/>
<path d="M108.432 197.978C107.469 177.663 106.552 157.348 106.478 137.01C106.469 134.25 106.612 131.49 106.708 128.73C106.782 126.509 107.828 125.334 110.15 124.975C117.467 123.846 124.812 123.689 132.184 123.915C132.336 123.92 132.488 123.943 132.645 123.957C138.308 124.399 138.589 124.703 138.893 130.569C139.625 144.668 140.482 158.758 142.012 172.793C142.487 177.161 143.141 177.631 147.564 177.47C159.374 177.046 171.178 176.484 183.002 176.967C183.836 177 184.693 176.921 185.517 176.783C188.111 176.359 188.766 175.59 188.743 172.959C188.618 160.067 188.498 147.174 188.337 134.282C188.259 127.901 190.079 125.878 196.507 125.012C203.229 124.104 209.975 124.145 216.729 124.136C216.96 124.136 217.19 124.15 217.421 124.164C222.733 124.523 223.802 125.578 223.913 130.836C224.148 141.807 224.268 152.777 224.558 163.743C225.309 192.357 226.106 220.97 226.94 249.579C227.032 252.795 227.488 255.998 227.691 259.214C227.806 261.048 227.792 262.886 227.465 264.72C226.751 268.738 225.668 269.756 221.54 269.867C213.638 270.079 205.74 270.29 197.834 269.816C195.599 269.682 194.742 268.669 194.539 266.572C193.553 256.256 193.36 245.893 192.774 235.554C192.443 229.656 192.162 223.753 191.775 217.86C191.512 213.884 190.176 212.796 186.185 212.948C174.606 213.391 163.014 213.483 151.453 214.377C151.301 214.391 151.144 214.391 150.992 214.404C145.915 214.755 144.929 215.814 145.403 220.837C146.514 232.614 146.873 244.423 146.864 256.242C146.864 259.688 147.021 263.144 146.795 266.577C146.606 269.498 145.726 270.042 142.782 270.042C133.88 270.042 124.973 270.138 116.071 270.065C110.643 270.019 110.381 269.632 110.33 264.259C110.118 242.156 109.501 220.063 108.432 197.987V197.978Z" fill="#FEFEFE"/>
<path d="M253.024 224.242C252.78 205.77 252.982 191.353 253.581 176.94C253.651 175.231 254.296 174.337 256.01 174.304C263.829 174.152 271.657 173.687 279.472 174.286C283.955 174.632 285.383 176.378 285.369 180.797C285.282 208.415 285.19 236.038 285.116 263.656C285.102 269.047 284.199 270.065 278.702 270.125C271.57 270.199 264.446 269.553 257.304 269.784C254.434 269.876 253.443 268.715 253.084 265.757C252.393 260.085 253.075 254.413 253.042 248.741C252.987 239.226 253.028 229.716 253.028 224.247L253.024 224.242Z" fill="#FEFEFE"/>
<path d="M285.369 139.01C285.379 148.958 278.26 156.362 268.69 156.358C257.668 156.358 249.877 149.253 249.881 139.217C249.886 128.813 257.959 120.897 268.565 120.888C278.642 120.879 285.356 128.117 285.369 139.01Z" fill="#FEFEFE"/>
</g>
<defs>
<clipPath id="clip0_1392_1408">
<rect width="266.22" height="258.539" fill="white" transform="translate(65 78)"/>
</clipPath>
</defs>
</svg>
