<svg version="1.1" id="Layer_1" xmlns:x="ns_extend;" xmlns:i="ns_ai;" xmlns:graph="ns_graphs;" xmlns="http://www.w3.org/2000/svg" xmlns:xlink="http://www.w3.org/1999/xlink" x="0px" y="0px" viewBox="0 0 49.8 48.8" style="enable-background:new 0 0 49.8 48.8;" xml:space="preserve">
 <style type="text/css">
  .st0{fill:#778EB1;}
 </style>
 <metadata>
  <sfw xmlns="ns_sfw;">
   <slices>
   </slices>
   <sliceSourceBounds bottomLeftOrigin="true" height="48.8" width="49.8" x="58.9" y="-199.3">
   </sliceSourceBounds>
  </sfw>
 </metadata>
 <g>
  <path class="st0" d="M39,8.1c-6.4,0-10.2,2.7-12,8.5l-4.4,13.8c-1.6,4.5-4.3,6.4-9.1,6.4h-11C1.2,36.8,0,38,0,39.3v7.1
		c0,1.3,1,2.3,2.4,2.3h44.8c1.4,0,2.6-1.2,2.6-2.6V10.6c0-1.4-1-2.4-2.4-2.4H39L39,8.1z M2.7,0C1.3,0,0,1.3,0,2.7v18.8
		c0,1.5,1.2,2.7,2.7,2.7h9.5c4.3,0,10.3-0.9,12-8.6c0,0,1.6-7.8,2.6-12.3C27,1.5,25.8,0,24,0H2.7L2.7,0z">
  </path>
 </g>
</svg>