<svg xmlns="http://www.w3.org/2000/svg" width="24" height="24" viewBox="0 0 24 24" fill="none">
  <path d="M11.1064 6.06714C11.8836 5.9126 12.684 6.02628 13.4023 6.39331C14.1207 6.7604 14.723 7.36327 15.1299 8.1228C15.5952 7.96403 16.0875 7.92711 16.5674 8.01538C17.0472 8.10368 17.5026 8.31457 17.8984 8.63159C18.2943 8.94866 18.6199 9.36374 18.8506 9.84448C19.0812 10.3253 19.2105 10.8593 19.2285 11.405C19.6723 11.2693 20.1386 11.2507 20.5898 11.3503C21.041 11.45 21.4652 11.6661 21.8301 11.9802C22.1952 12.2945 22.4905 12.6992 22.6934 13.1628C22.8943 13.6222 22.9995 14.1268 23 14.6384C23 14.6763 22.9953 14.714 22.9941 14.7517C22.9971 14.8073 22.9999 14.8629 23 14.9187C22.9999 15.7358 22.6843 16.5197 22.123 17.0974C21.6706 17.5631 21.0875 17.8605 20.4629 17.9597C20.4389 17.9639 20.4147 17.967 20.3906 17.9705C20.2639 17.9873 20.136 17.9998 20.0068 17.9998H19.1846L19.1572 17.8083C18.9679 16.8649 17.9781 16.0733 16.6143 15.6931C16.981 15.3204 17.2318 14.8438 17.335 14.324C17.438 13.8041 17.3889 13.2641 17.1934 12.7732C16.9977 12.2823 16.6643 11.8627 16.2363 11.5671C15.8081 11.2715 15.3036 11.113 14.7881 11.113C14.2727 11.1131 13.7689 11.2716 13.3408 11.5671C12.9128 11.8627 12.5794 12.2823 12.3838 12.7732C12.1881 13.2641 12.1391 13.804 12.2422 14.324C12.3453 14.8438 12.5961 15.3204 12.9629 15.6931C12.2707 15.8635 11.6271 16.1999 11.085 16.6746C10.743 16.4728 10.377 16.3177 9.99609 16.2136C10.3114 15.8953 10.5278 15.487 10.6172 15.0417C10.7065 14.5965 10.665 14.1336 10.498 13.7126C10.331 13.2917 10.0454 12.9311 9.67871 12.6775C9.31211 12.4241 8.88006 12.2888 8.43848 12.2888C7.99682 12.2889 7.56485 12.4239 7.19824 12.6775C6.8316 12.931 6.54691 13.2917 6.37988 13.7126C6.21289 14.1336 6.17139 14.5965 6.26074 15.0417C6.35017 15.4871 6.56638 15.8953 6.88184 16.2136C5.73509 16.5407 4.89978 17.1947 4.72168 17.9861H3.89844C3.88244 17.9855 3.86655 17.983 3.85059 17.9822C3.80121 17.9795 3.75211 17.9749 3.70312 17.9695C2.99867 17.8982 2.33901 17.5753 1.84375 17.0486C1.30293 16.4734 1.0001 15.7046 1 14.9041C1 14.8588 1.00394 14.8133 1.00586 14.7683C1.00398 14.7197 1 14.6707 1 14.6218C1.00009 13.7485 1.30292 12.9095 1.84375 12.282C2.38461 11.6546 3.12125 11.288 3.89844 11.2595C4.27941 11.261 4.65697 11.3429 5.01074 11.5017C5.25059 10.9165 5.63529 10.421 6.11914 10.075C6.60315 9.7288 7.16643 9.54607 7.74023 9.54956H7.95605C8.10585 8.67942 8.48651 7.88034 9.04883 7.25854C9.61126 6.63664 10.3293 6.22176 11.1064 6.06714Z" fill="#3ABEB9"/>
</svg>
