<svg width="24" height="24" viewBox="0 0 24 24" fill="none" xmlns="http://www.w3.org/2000/svg">
<path d="M10.1356 10.778L10.0032 10.5947C9.12162 9.39823 6.24759 5.72754 3.78423 5.05643C3.73051 5.04396 3.67641 5.03321 3.622 5.0242C3.28421 4.97456 2.93991 5.04995 2.65377 5.2362C2.36796 5.42198 2.16024 5.70616 2.06999 6.03488C1.97147 6.45294 1.97704 6.8888 2.08621 7.30422C2.38355 8.59511 3.43823 10.0962 5.02802 10.9316L5.74447 11.2927C5.60003 11.326 5.45736 11.3673 5.31736 11.4167C5.1578 11.4722 5.00402 11.5425 4.85757 11.6269C4.68481 11.7275 4.55249 11.8851 4.48335 12.0727C4.41419 12.26 4.41261 12.4655 4.4789 12.6538C4.49579 12.7078 4.51935 12.7594 4.54935 12.8071C4.8198 13.2682 5.4958 13.6347 6.30426 13.756C7.71028 13.9636 9.51363 13.4245 10.2925 11.3116L10.3601 11.0716L10.1356 10.778Z" fill="#161027"/>
<path d="M13.8646 10.7687L13.997 10.5854C14.8784 9.38892 17.7526 5.71823 20.2157 5.04712C20.2697 5.03467 20.3237 5.02378 20.378 5.01489C20.7158 4.96525 21.0601 5.04064 21.3462 5.2269C21.632 5.41269 21.8397 5.69686 21.93 6.02557C22.0286 6.44363 22.023 6.87951 21.9138 7.29491C21.6162 8.5858 20.5618 10.0869 18.972 10.9223L18.2553 11.2834C18.3999 11.3167 18.5428 11.358 18.6826 11.4074C18.8422 11.4629 18.996 11.5332 19.1422 11.6176C19.3149 11.7182 19.4473 11.8758 19.5164 12.0634C19.5857 12.2507 19.5871 12.456 19.5209 12.6445C19.5041 12.6984 19.4804 12.75 19.4504 12.7978C19.18 13.2589 18.5042 13.6254 17.6957 13.7467C16.2897 13.9543 14.4861 13.4152 13.7074 11.3023L13.6399 11.0623L13.8646 10.7687Z" fill="#161027"/>
<path d="M13.8591 8.02364C13.8591 8.20097 13.8042 8.37409 13.7013 8.51875C13.5985 8.6636 13.4533 8.77306 13.2858 8.83209L12.0555 9.2632C12.0072 9.27946 11.955 9.27946 11.9067 9.2632L10.6766 8.83209C10.4858 8.7652 10.3247 8.63295 10.222 8.45875C10.1195 8.2848 10.0821 8.08012 10.1165 7.88118C10.1509 7.68224 10.2548 7.50198 10.4097 7.37252C10.5648 7.24261 10.7608 7.17163 10.9631 7.17208H13.002C13.2293 7.17208 13.4473 7.26208 13.6082 7.4223C13.6877 7.50154 13.7508 7.59567 13.7938 7.69931C13.8369 7.80296 13.8591 7.91408 13.8591 8.02631M12.3882 5.86229L11.9827 5.36896L11.5742 5.86229L10.912 5.36896V6.66519H13.0507V5.36896L12.3882 5.86229ZM14.8647 15.171H9.08106C9.08106 15.2115 9.08106 15.2519 9.0944 15.2923C9.13855 15.7336 9.22928 16.169 9.36507 16.5912H14.5645C14.7106 16.1288 14.8113 15.6531 14.8647 15.171ZM9.66263 17.2997C9.98425 17.9425 10.4798 18.4822 11.0929 18.8575C11.3066 18.9841 11.7553 19.2779 12.0284 19.213C12.5264 19.0894 12.9891 18.8523 13.3802 18.5201C13.7707 18.1884 14.0789 17.7706 14.2807 17.2997H9.66263ZM14.9162 14.4623C14.9162 13.9448 14.8107 13.4166 14.3131 13.147C13.7209 12.8263 12.9342 12.8992 12.2827 12.9019C11.3931 12.9019 9.63263 12.619 9.17595 13.6537C9.07323 13.9105 9.02444 14.1858 9.03262 14.4623H14.9162Z" fill="#161027"/>
<path d="M13.9319 11.061C13.9319 11.4463 13.8171 11.8232 13.6019 12.1436C13.3864 12.4642 13.0805 12.7136 12.723 12.8601C12.3654 13.0072 11.9723 13.0449 11.5932 12.9686C11.2142 12.8922 10.8662 12.7052 10.5935 12.4312C10.3211 12.158 10.1364 11.8098 10.0629 11.4311C9.98939 11.0524 10.0304 10.6604 10.1808 10.3052C10.3313 9.94955 10.5842 9.64671 10.9072 9.43518C11.2306 9.22327 11.6095 9.11192 11.9961 9.11518C12.5133 9.11508 13.0094 9.32007 13.3757 9.68519C13.5567 9.86556 13.7003 10.08 13.7981 10.316C13.8959 10.5521 13.9461 10.8052 13.9457 11.0607" fill="#161027"/>
</svg>
