<svg width="28" height="28" viewBox="0 0 28 28" fill="none" xmlns="http://www.w3.org/2000/svg">
<path d="M21.2861 25.9844C21.4279 25.9844 21.5 26.0586 21.5 26.208V27.7764C21.4999 27.9252 21.4278 28 21.2861 28H6.71484C6.57152 28 6.50014 27.9252 6.5 27.7764V26.208C6.50001 26.0586 6.57138 25.9844 6.71484 25.9844H21.2861ZM13.8926 5C15.3709 5.00003 16.6059 5.26332 17.5967 5.79004C18.5873 6.31682 19.3236 6.97901 19.8047 7.77637C20.2857 8.57399 20.5478 9.39755 20.5908 10.2461C20.5908 10.3925 20.5185 10.4658 20.375 10.4658H18.6523C18.5086 10.4658 18.4365 10.3925 18.4365 10.2461C18.3791 9.32422 17.9982 8.54923 17.2949 7.91992C16.5914 7.29101 15.4572 6.97561 13.8926 6.97559C12.3417 6.97559 11.2356 7.25358 10.5752 7.80957C9.9148 8.36591 9.58501 9.03896 9.58496 9.8291C9.58496 10.4585 9.71415 10.9634 9.97266 11.3438C10.2312 11.7245 10.69 12.0395 11.3506 12.2881C12.0108 12.5371 12.988 12.7707 14.2803 12.9902C15.8595 13.2536 17.1191 13.5578 18.0596 13.9014C19 14.2454 19.7255 14.7355 20.2354 15.3721C20.7447 16.0087 21 16.8685 21 17.9512C21 18.9608 20.6985 19.8499 20.0957 20.6182C19.4927 21.3865 18.6841 21.9762 17.6719 22.3857C16.6596 22.7951 15.5434 23 14.3232 23C13.0881 23 11.9287 22.8281 10.8447 22.4844C9.76051 22.1408 8.85951 21.559 8.1416 20.7393C7.42358 19.9198 7.04317 18.8512 7 17.5342C7 17.3881 7.0722 17.3145 7.21582 17.3145H8.93848C9.08191 17.3145 9.1543 17.3881 9.1543 17.5342C9.21152 18.822 9.68847 19.7259 10.5859 20.2451C11.4831 20.7648 12.7293 21.0244 14.3232 21.0244C15.7302 21.0244 16.8354 20.7569 17.6396 20.2227C18.4436 19.6886 18.8457 18.9318 18.8457 17.9512C18.8457 17.2488 18.7021 16.7035 18.415 16.3154C18.1275 15.9281 17.647 15.617 16.9727 15.3828C16.2976 15.1489 15.285 14.9216 13.9355 14.7021C12.4134 14.4535 11.1852 14.1427 10.252 13.7695C9.31861 13.3963 8.61549 12.8949 8.1416 12.2656C7.66772 11.6366 7.43066 10.8243 7.43066 9.8291C7.4307 9.08288 7.65371 8.34049 8.09863 7.60156C8.54361 6.86275 9.25063 6.24376 10.2197 5.74609C11.189 5.24877 12.4135 5 13.8926 5ZM21.2861 0C21.4278 0 21.4999 0.0747962 21.5 0.223633V1.79199C21.5 1.94143 21.4279 2.01562 21.2861 2.01562H6.71484C6.57139 2.01559 6.50002 1.94139 6.5 1.79199V0.223633C6.50012 0.0748321 6.57149 3.61269e-05 6.71484 0H21.2861Z" fill="black"/>
</svg>
