<svg width="24" height="24" viewBox="0 0 24 24" fill="none" xmlns="http://www.w3.org/2000/svg">
<path d="M15.9502 9.85022H21.1162C21.6043 9.85022 21.9999 10.2387 21.9999 10.7179V15.3382C21.9999 17.0994 20.5458 18.5273 18.752 18.5273H18.7367C16.9429 18.5275 15.4885 17.0999 15.4883 15.3386V10.3038C15.4883 10.2442 15.5002 10.1852 15.5234 10.1302C15.5466 10.0752 15.5806 10.0252 15.6235 9.98303C15.6664 9.94091 15.7173 9.90749 15.7734 9.88471C15.8294 9.86192 15.8895 9.8502 15.9502 9.85022Z" fill="#5059C9"/>
<path d="M19.4418 8.93691C20.5978 8.93691 21.5349 8.01682 21.5349 6.88182C21.5349 5.74682 20.5978 4.82672 19.4418 4.82672C18.2858 4.82672 17.3488 5.74682 17.3488 6.88182C17.3488 8.01682 18.2858 8.93691 19.4418 8.93691Z" fill="#5059C9"/>
<path d="M12.9302 8.93693C14.5999 8.93693 15.9534 7.6079 15.9534 5.96846C15.9534 4.32903 14.5999 3 12.9302 3C11.2604 3 9.90686 4.32903 9.90686 5.96846C9.90686 7.6079 11.2604 8.93693 12.9302 8.93693Z" fill="#7B83EB"/>
<path d="M16.9616 9.85022H8.43411C7.95184 9.86196 7.57035 10.2549 7.58153 10.7285V15.9981C7.51418 18.8397 9.8038 21.1978 12.6978 21.2674C15.5918 21.1978 17.8814 18.8397 17.8141 15.9981V10.7285C17.8253 10.2549 17.4438 9.86196 16.9616 9.85022Z" fill="#7B83EB"/>
<path opacity="0.1" d="M13.1628 9.85022V17.2348C13.1617 17.4004 13.1108 17.562 13.0164 17.6994C12.9221 17.8367 12.7886 17.9436 12.6326 18.0066C12.531 18.0488 12.4219 18.0705 12.3116 18.0705H7.99059C7.93012 17.9198 7.87434 17.7691 7.82778 17.6139C7.66496 17.0898 7.5819 16.5451 7.58129 15.9972V10.7271C7.57012 10.2543 7.95098 9.86196 8.43247 9.8503L13.1628 9.85022Z" fill="black"/>
<path opacity="0.2" d="M12.6977 9.85022V17.6915C12.6977 17.7997 12.6756 17.9069 12.6327 18.0066C12.5684 18.1598 12.4596 18.2909 12.3197 18.3835C12.1798 18.4762 12.0152 18.5262 11.8466 18.5273H8.20943C8.13037 18.3765 8.05592 18.2258 7.99084 18.0705C7.92831 17.9213 7.87396 17.7688 7.82802 17.6139C7.6652 17.0898 7.58215 16.5451 7.58154 15.9972V10.7271C7.57037 10.2543 7.95123 9.86196 8.43271 9.8503L12.6977 9.85022Z" fill="black"/>
<path opacity="0.2" d="M12.6977 9.85022V16.7781C12.6942 17.2382 12.3152 17.6104 11.8465 17.6139H7.8279C7.66508 17.0898 7.58202 16.5451 7.58142 15.9972V10.7271C7.57024 10.2543 7.95111 9.86196 8.43259 9.8503L12.6977 9.85022Z" fill="black"/>
<path opacity="0.2" d="M12.2326 9.85022V16.7781C12.229 17.2382 11.85 17.6104 11.3814 17.6139H7.8279C7.66508 17.0898 7.58202 16.5451 7.58142 15.9972V10.7271C7.57024 10.2543 7.95111 9.86196 8.43259 9.8503L12.2326 9.85022Z" fill="black"/>
<path opacity="0.1" d="M13.1628 7.48918V8.9277C13.0838 8.9323 13.0093 8.9369 12.9303 8.9369C12.8512 8.9369 12.7767 8.9323 12.6977 8.9277C12.5407 8.91747 12.385 8.89302 12.2326 8.85467C11.7683 8.74669 11.3366 8.53234 10.9728 8.22913C10.609 7.92593 10.3235 7.54249 10.1396 7.11016C10.0753 6.96289 10.0255 6.80996 9.99072 6.65344H12.3117C12.781 6.65521 13.161 7.02832 13.1628 7.48918Z" fill="black"/>
<path opacity="0.2" d="M12.6977 7.94586V8.92773C12.5407 8.9175 12.385 8.89305 12.2326 8.8547C11.7683 8.74671 11.3366 8.53236 10.9728 8.22915C10.6091 7.92595 10.3236 7.54251 10.1396 7.1102H11.8465C12.3159 7.11189 12.6959 7.48507 12.6977 7.94586Z" fill="black"/>
<path opacity="0.2" d="M12.6977 7.94586V8.92773C12.5407 8.9175 12.385 8.89305 12.2326 8.8547C11.7683 8.74671 11.3366 8.53236 10.9728 8.22915C10.6091 7.92595 10.3236 7.54251 10.1396 7.1102H11.8465C12.3159 7.11189 12.6959 7.48507 12.6977 7.94586Z" fill="black"/>
<path opacity="0.2" d="M12.2326 7.94585V8.85469C11.7682 8.7467 11.3365 8.53234 10.9727 8.22912C10.609 7.9259 10.3234 7.54245 10.1395 7.11011H11.3814C11.8508 7.11187 12.2308 7.48506 12.2326 7.94585Z" fill="black"/>
<path d="M2.85258 7.11009H11.38C11.8509 7.11009 12.2326 7.48489 12.2326 7.94721V16.32C12.2326 16.7823 11.8509 17.1571 11.38 17.1571H2.85258C2.38172 17.1571 2 16.7823 2 16.32V7.94729C2 7.48481 2.38172 7.11009 2.85258 7.11009Z" fill="url(#paint0_linear_3319_21846)"/>
<path d="M9.35988 10.2969H7.65518V14.8546H6.56916V10.2969H4.87244V9.41275H9.35988V10.2969Z" fill="white"/>
<defs>
<linearGradient id="paint0_linear_3319_21846" x1="179.761" y1="-58.2967" x2="829.345" y2="1087.52" gradientUnits="userSpaceOnUse">
<stop stop-color="#5A62C3"/>
<stop offset="0.5" stop-color="#4D55BD"/>
<stop offset="1" stop-color="#3940AB"/>
</linearGradient>
</defs>
</svg>
