<svg xmlns="http://www.w3.org/2000/svg" width="50" height="27" viewBox="5 0 27 27" fill="none"><path fill-rule="evenodd" clip-rule="evenodd" d="M22.0049 0.974609H38.583C38.583 6.00122 34.5081 10.0761 29.4814 10.0761H22.0049V0.974609Z" fill="#5DCFFA"></path><mask id="mask1_1718_48258" style="mask-type:alpha" maskUnits="userSpaceOnUse" x="22" y="10" width="10" height="17"><path d="M22.0039 26.5962H31.1055V10.0771H22.0039V26.5962Z" fill="white"></path></mask><g mask="url(#mask1_1718_48258)"><path fill-rule="evenodd" clip-rule="evenodd" d="M22.0042 23.655L31.1057 26.5962V10.0771H22.0042V23.655Z" fill="#0054FF"></path></g><path fill-rule="evenodd" clip-rule="evenodd" d="M31.1023 9.92969C31.1031 9.97895 31.1061 10.0274 31.1061 10.0767C31.1061 10.0274 31.1031 9.97895 31.1023 9.92969Z" fill="white"></path><path fill-rule="evenodd" clip-rule="evenodd" d="M22.0049 10.0766H29.4814C30.0351 10.0766 30.5763 10.0244 31.1027 9.92969C30.5763 10.0244 30.0351 10.0766 29.4814 10.0766H22.0049Z" fill="white"></path><path fill-rule="evenodd" clip-rule="evenodd" d="M17.4934 10.076H10.0169C4.99019 10.076 0.915283 6.00099 0.915283 0.974609H17.4934V10.076Z" fill="#5DCFFA"></path><path fill-rule="evenodd" clip-rule="evenodd" d="M8.39209 26.5943L17.4936 23.6531V10.0752H8.39209V26.5943Z" fill="#0054FF"></path><path fill-rule="evenodd" clip-rule="evenodd" d="M10.017 10.0766C9.46324 10.0766 8.92203 10.0244 8.39551 9.92969C8.92203 10.0244 9.46324 10.0766 10.017 10.0766H17.4935H10.017Z" fill="#F7FAFF"></path><path fill-rule="evenodd" clip-rule="evenodd" d="M8.39258 10.0766C8.39258 10.0274 8.39556 9.97893 8.39635 9.92969C8.39556 9.97893 8.39258 10.0274 8.39258 10.0766Z" fill="#F7FAFF"></path><path fill-rule="evenodd" clip-rule="evenodd" d="M10.0164 10.0765H17.4929L8.39136 13.1102V10.0765C8.39136 10.0272 8.39434 9.97874 8.39493 9.92969C8.92145 10.0242 9.46267 10.0765 10.0164 10.0765Z" fill="#1A31AE"></path><path fill-rule="evenodd" clip-rule="evenodd" d="M29.4812 10.0765H22.0046L31.1062 13.1102V10.0765C31.1062 10.0272 31.1032 9.97874 31.1026 9.92969C30.5761 10.0242 30.0349 10.0765 29.4812 10.0765Z" fill="#1A31AE"></path></svg>