<svg width="42" height="42" viewBox="0 -5 42 42" fill="none" xmlns="http://www.w3.org/2000/svg">
<g clip-path="url(#clip0_1015_5982)">
<path d="M41.5075 1.1261V10.4103C41.5075 11.0153 41.2623 11.589 40.8346 12.0115L22.8036 29.6723C22.0942 30.366 20.8998 29.8653 20.8998 28.869V18.7451C20.8998 18.0775 20.1018 17.7437 19.6271 18.2079L11.334 26.3342C10.6246 27.0279 9.42498 26.5271 9.42498 25.5309V17.9732C9.42498 16.9874 8.24621 16.4867 7.53164 17.1595L7.51599 17.1752L1.90377 22.6779C1.19442 23.3716 0 22.8708 0 21.8746V12.5957C0 11.9907 0.245143 11.4169 0.67284 10.9944L6.18074 5.59606C6.8901 4.90235 8.08452 5.40307 8.08452 6.39929V13.957C8.08452 14.9428 9.26329 15.4435 9.97786 14.7707L9.99351 14.755L20.5399 4.42771C21.2492 3.73401 22.4437 4.23473 22.4437 5.23095V15.3444C22.4437 16.0016 23.2417 16.3406 23.7163 15.8764L39.6037 0.328081C40.3131 -0.365623 41.5075 0.135096 41.5075 1.13132V1.1261Z" fill="#227af7"/>
</g>
</svg>
