<svg width="24" height="24" viewBox="0 0 24 24" fill="none" xmlns="http://www.w3.org/2000/svg">
<path fill-rule="evenodd" clip-rule="evenodd" d="M22 12C22 17.5227 17.5227 22 12 22C6.47727 22 2 17.5227 2 12C2 6.47727 6.47727 2 12 2C17.5227 2 22 6.47727 22 12ZM15.1818 13.1509V10.8491C15.1818 10.7825 15.1965 10.7167 15.2248 10.6563C15.2531 10.596 15.2943 10.5426 15.3455 10.5L17.5364 8.67455C17.5695 8.64691 17.6099 8.62929 17.6527 8.62377C17.6956 8.61825 17.7391 8.62504 17.7782 8.64335C17.8173 8.66167 17.8504 8.69075 17.8736 8.72718C17.8968 8.76362 17.9091 8.80591 17.9091 8.84909V15.1509C17.9091 15.1941 17.8968 15.2364 17.8736 15.2728C17.8504 15.3093 17.8173 15.3383 17.7782 15.3566C17.7391 15.375 17.6956 15.3818 17.6527 15.3762C17.6099 15.3707 17.5695 15.3531 17.5364 15.3255L15.3455 13.5C15.2943 13.4574 15.2531 13.404 15.2248 13.3437C15.1965 13.2833 15.1818 13.2175 15.1818 13.1509ZM5.63636 9.27273V14.7273C5.63636 14.9684 5.73214 15.1996 5.90263 15.3701C6.07312 15.5406 6.30435 15.6364 6.54545 15.6364H13.8182C13.9387 15.6364 14.0543 15.5885 14.1396 15.5032C14.2248 15.418 14.2727 15.3024 14.2727 15.1818V9.72727C14.2727 9.48617 14.1769 9.25494 14.0065 9.08445C13.836 8.91396 13.6047 8.81818 13.3636 8.81818H6.09091C5.97036 8.81818 5.85474 8.86607 5.7695 8.95131C5.68425 9.03656 5.63636 9.15217 5.63636 9.27273Z" fill="#0B5CFF"/>
</svg>
